<svg width="132" height="134" viewBox="0 0 132 134" fill="none" xmlns="http://www.w3.org/2000/svg">
<path d="M114.315 7.37576C136.685 20.637 127.471 43.2009 82.514 43.2009L81.7831 24.7672C100.106 28.4313 125.38 28.8422 114.315 7.37603L114.315 7.37576ZM16.7447 7.37576C5.67941 28.8425 30.9538 28.431 49.2768 24.767L48.5456 43.2009C3.5888 43.2009 -5.62516 20.6373 16.7445 7.37576H16.7447ZM87.0876 57.7791C88.0667 57.8063 89.0877 57.9846 90.1339 58.3253C90.6204 66.1303 87.1355 71.4919 77.6258 68.7627C77.745 61.8899 81.8009 57.6318 87.0876 57.7791V57.7791ZM43.978 57.7791C49.2649 57.6318 53.3211 61.8899 53.4397 68.7624C43.93 71.4921 40.4449 66.1303 40.9311 58.3251C41.9773 57.9848 42.9988 57.8063 43.978 57.7791V57.7791ZM57.6737 100.361L60.4563 104.356C56.4512 107.229 55.5089 112.782 58.3397 116.848C61.1697 120.914 66.6361 121.867 70.6407 118.994C74.6458 116.121 75.5881 110.568 72.7573 106.502C72.234 105.75 71.6015 105.084 70.8784 104.528L73.7821 100.63C74.901 101.49 75.8841 102.515 76.6933 103.678C81.0259 109.903 79.5545 118.591 73.423 122.99C67.2912 127.388 58.739 125.894 54.4062 119.67C50.0734 113.445 51.5419 104.76 57.6732 100.362L57.6737 100.361Z" fill="#E3F1EF"/>
</svg>
